<?xml version="1.0" standalone="no"?>
<!DOCTYPE svg PUBLIC "-//W3C//DTD SVG 20010904//EN"
 "http://www.w3.org/TR/2001/REC-SVG-20010904/DTD/svg10.dtd">
<svg version="1.0" xmlns="http://www.w3.org/2000/svg"
 width="177.000000pt" height="145.000000pt" viewBox="0 0 177.000000 145.000000"
 preserveAspectRatio="xMidYMid meet">

<g transform="translate(0.000000,145.000000) scale(0.100000,-0.100000)"
fill="#ADEB00" stroke="none">
<path id="path1" d="M926 1303 c-14 -50 -256 -1134 -256 -1147 0 -13 14 -16 80 -16 44 0
80 2 80 3 0 2 59 262 130 577 72 315 130 579 130 586 0 11 -19 14 -79 14 -67
0 -80 -3 -85 -17z"/>
<path id="path2" d="M316 969 c-252 -198 -256 -201 -256 -237 0 -36 5 -41 254 -235 140
-108 257 -197 260 -197 3 0 6 44 6 98 l-1 97 -155 118 -155 119 58 45 c32 25
102 79 156 120 l97 75 0 99 c0 54 -2 99 -4 99 -2 0 -119 -90 -260 -201z"/>
<path id="path3" d="M1180 1072 l0 -99 128 -99 c70 -54 139 -108 154 -120 l27 -22 -154
-119 -154 -118 0 -97 c-1 -54 2 -98 5 -98 3 0 120 89 260 197 251 196 254 198
254 235 0 37 -3 40 -246 230 -135 106 -252 197 -260 201 -12 7 -14 -9 -14 -91z"/>
</g>
</svg>
